<svg xmlns="http://www.w3.org/2000/svg" width="682.667" height="682.667" viewBox="0 0 512 512"><path d="M174.54 142.81c7.96-2.45 17.09 3.04 18.66 11.2 2.02 8.3-4.58 17.3-13.1 17.8-7.36.97-14.75-4.54-16.08-11.8-1.73-7.36 3.34-15.2 10.52-17.2zm53.9-.37l82.88-.17-.11 15.74c-9.28 8.14-17.5 17.47-26.51 25.93 5.54 4.96 10.22 10.94 16.11 15.44l33.81.04-.01 16.29c-12.48-.26-25.02.59-37.46-.46-10.91-2.07-17.38-11.75-25.02-18.79-6.01 5.79-11.27 12.6-18.67 16.72-3.63 1.49-7.49 2.6-11.45 2.55-10.74.02-21.48-.05-32.23.03l-.11-16.24 34.27-.03 41.02-40.85c-18.85.16-37.71-.03-56.57.11.15-5.44.1-10.88.05-16.31zm-86.91 57.02l47.42-.02.25 90.41-6.63.06c-4.79-.13-9.57-.04-14.36-.07.04-2.79.06-5.57-.07-8.35l.11-65.79c-8.89.05-17.78-.02-26.67.03l-.05-16.27zm120.21 25.12c6.92-.09 13.85.14 20.77-.15.14 4.37.09 8.74 0 13.12l40.26.15c-.22 5.36-.14 10.73-.09 16.09l-40.1.03-.1 19.71 46.06-.04c.13 5.42.03 10.84.11 16.27-14.93.19-29.86-.01-44.79.08l-1.23-.08.03 29.15c-6.97.34-13.96.13-20.93.12l.04-29.17-46.02-.02.01-16.25 46.02.01v-19.79c-.32.05-.98.14-1.31.18-12.92-.3-25.84-.08-38.76-.12l-.03-16.33 40.08.07-.02-13.03z" fill="#fff"/><path fill="#028fff" d="M212.01 80.95c17.13-1.68 34.43-2.24 51.61-.98-8.64 2.97-18.1-.19-26.91 1.82L89.54 166.6c-3.9 2.42-8.32 4.12-11.71 7.25-2.94 4.48-3.42 10-4.96 15.03-.19 1.47-1.5 2.24-2.54 3.12 6.06-30.74 23.64-59.12 48.86-77.8 26.73-20.13 59.91-29.73 92.82-33.25z"/><path fill="#0699ff" d="M263.62 79.97c21.59.92 43.19 4.78 63.68 11.79 10.13 3.67 20.25 7.76 29.32 13.64-4.35.19-7.86-2.76-11.63-4.46-6.03-2.91-12.23-5.85-18.77-7.34-12.47 6.51-24.36 14.15-36.7 20.94l-43.48 25.06c5.62.57 11.25 1.33 16.91 1.35l43.05.04c1.83.05 3.89-.12 5.32 1.28l-82.88.17-.05 16.31c-3.09-.99-2.09-4.98-2.73-7.46l-78.53 45.41c6.62.46 13.21 1.42 19.86 1.16 7.21.2 14.45-.4 21.64.31l.32 1.27c-15.81.01-31.62-.03-47.42.02.12 5.42.05 10.85.05 16.27l-1.55.02c-.22-4.85-.12-9.7-.21-14.54-7.71 3.51-14.77 8.24-22.15 12.38l-46.39 26.68c-.97.64-2.26 1.32-2.16 2.7-.52 4.23 2.17 8.7-.2 12.65-3.57-20.98-3.08-42.66 1.25-63.49l.16-.13c1.04-.88 2.35-1.65 2.54-3.12 1.54-5.03 2.02-10.55 4.96-15.03 3.39-3.13 7.81-4.83 11.71-7.25l147.17-84.81c8.81-2.01 18.27 1.15 26.91-1.82m-89.08 62.84c-7.18 2-12.25 9.84-10.52 17.2 1.33 7.26 8.72 12.77 16.08 11.8 8.52-.5 15.12-9.5 13.1-17.8-1.57-8.16-10.7-13.65-18.66-11.2z"/><path fill="#0aa3ff" d="M326.22 93.6c6.54 1.49 12.74 4.43 18.77 7.34 3.77 1.7 7.28 4.65 11.63 4.46 5.39 2.62 10.29 6.28 15 9.98l-1.72.26c-1.42-.67-2.77-1.47-4.22-2.04-1.8.12-3.31 1.33-4.86 2.14-12.46 7.66-25.43 14.46-37.94 22.04-3.11 1.94-6.66 3.24-9.38 5.74-.88 4.53.18 9.19-.63 13.73l-1.66.76.11-15.74c-1.43-1.4-3.49-1.23-5.32-1.28-14.35.11-28.7-.08-43.05-.04-5.66-.02-11.29-.78-16.91-1.35l43.48-25.06c12.34-6.79 24.23-14.43 36.7-20.94z"/><path fill="#10b1ff" d="M360.82 115.74c1.55-.81 3.06-2.02 4.86-2.14 1.45.57 2.8 1.37 4.22 2.04l1.72-.26.14-.02c20.3 15.53 35.46 37.42 43.39 61.69l-1.52.46c-3.2-7.69-5.28-16.04-10.56-22.67l-34.45 19.79-37.52 21.71 3.45 1.25c.01.46.05 1.37.07 1.83-11.27-.02-22.55.13-33.81-.04-5.89-4.5-10.57-10.48-16.11-15.44 9.01-8.46 17.23-17.79 26.51-25.93l1.66-.76c.81-4.54-.25-9.2.63-13.73 2.72-2.5 6.27-3.8 9.38-5.74 12.51-7.58 25.48-14.38 37.94-22.04z"/><path fill="#0ca7ff" d="M147.13 196.7l78.53-45.41c.64 2.48-.36 6.47 2.73 7.46l56.57-.11-41.02 40.85c-11.42-.03-22.85-.1-34.27.03.17 5.41.05 10.82.11 16.24l32.23-.03c3.96.05 7.82-1.06 11.45-2.55l-.22 1.8c-5.62 2.87-12.15 2.02-18.21 2.92-6.21.87-13.26-1.66-18.73 2.34-7.65 4.85-15.76 8.92-23.51 13.61-2.25 1.15-1.56 4.07-1.77 6.13l-.1 37.05c-.06 3.86.31 7.76-.32 11.58l-1.4 1.24-.25-90.41-.32-1.27c-7.19-.71-14.43-.11-21.64-.31-6.65.26-13.24-.7-19.86-1.16z"/><path fill="#14bbff" d="M368.62 174.63l34.45-19.79c5.28 6.63 7.36 14.98 10.56 22.67.99 2.83 1.73 5.75 2.54 8.64-4.13 3.04-8.84 5.15-13.13 7.95l-68.49 39.44c-3.06 1.87-6.6 3.18-9.08 5.84-1.61 4.59-1.09 9.56-1.71 14.33l-1.08.08c-.05-5.36-.13-10.73.09-16.09-13.42-.33-26.84-.01-40.26-.15.09-4.38.14-8.75 0-13.12 4.66-3.41 10.02-5.7 14.64-9.18 12.44 1.05 24.98.2 37.46.46l.01-16.29-.07-1.83c-1.15-.44-2.3-.85-3.45-1.25 12.34-7.52 24.97-14.54 37.52-21.71z"/><path fill="#18c5ff" d="M413.63 177.51l1.52-.46c6.85 21.03 8.99 43.57 6.82 65.55-1.86-4.62-1.01-9.64-1.22-14.47-17.25 8.97-33.69 19.45-50.74 28.81-10.04 6.05-20.32 11.69-30.48 17.54-2.72 1.61-5.75 2.83-8.03 5.07-.95 3.27-.67 6.81-1.66 10.09l-1.19.12-.11-16.27-46.06.04c.19-6.57.05-13.14.1-19.71l40.1-.03 1.08-.08c.62-4.77.1-9.74 1.71-14.33 2.48-2.66 6.02-3.97 9.08-5.84l68.49-39.44c4.29-2.8 9-4.91 13.13-7.95-.81-2.89-1.55-5.81-2.54-8.64z"/><path fill="#12b3ff" d="M253.46 213.18c7.4-4.12 12.66-10.93 18.67-16.72 7.64 7.04 14.11 16.72 25.02 18.79-4.62 3.48-9.98 5.77-14.64 9.18-6.92.29-13.85.06-20.77.15l.02 13.03c-13.36-.11-26.72.01-40.08-.07l.03 16.33 38.76.12c-5.99 2.09-12.37.54-18.53 1.27-3.96.47-7.93.89-11.92.85-3.53-.26-6.44 1.96-9.34 3.6-9.77 6.03-19.95 11.36-29.76 17.32l.1-37.05c.21-2.06-.48-4.98 1.77-6.13 7.75-4.69 15.86-8.76 23.51-13.61 5.47-4 12.52-1.47 18.73-2.34 6.06-.9 12.59-.05 18.21-2.92l.22-1.8z"/><path fill="#0ca5ff" d="M117.67 213.59c7.38-4.14 14.44-8.87 22.15-12.38.09 4.84-.01 9.69.21 14.54l1.55-.02 26.67-.03-.11 65.79c-2.89-10.72-.14-21.98-1.69-32.87-.91-6.73-.26-13.54-.57-20.3l-83.59 47.92c-2.71 1.36-4.99 3.4-6.45 6.08-3.01-8.69-5.61-17.58-6.92-26.7 2.37-3.95-.32-8.42.2-12.65-.1-1.38 1.19-2.06 2.16-2.7l46.39-26.68z"/><path fill="#10afff" d="M82.29 276.24l83.59-47.92c.31 6.76-.34 13.57.57 20.3 1.55 10.89-1.2 22.15 1.69 32.87.13 2.78.11 5.56.07 8.35l14.36.07c2.17.58 4.33 1.24 6.5 1.86-6.91.3-13.84.5-20.73-.14-3.23-.5-5.96 1.65-8.62 3.13-8.47 5.3-17.29 10.02-25.93 15.04-7.68 4.25-15.06 9.02-22.83 13.1-1.85.94-3.46 2.25-5 3.63 2.19 2.12 4.46 4.18 6.41 6.53l-.07 1.65c-16.58-13.77-28.86-32.31-36.46-52.39 1.46-2.68 3.74-4.72 6.45-6.08z"/><path fill="#22cbff" d="M370.01 256.94c17.05-9.36 33.49-19.84 50.74-28.81.21 4.83-.64 9.85 1.22 14.47-.47 9.52-2.41 19.04-5.06 28.21-1.84-3.8.34-7.82.92-11.66-13.29 6.64-25.75 14.82-38.77 21.95l-168.1 96.81c-13.8 8.16-27.96 15.71-41.56 24.2.35 2.22.88 4.57-.3 6.66l-10.98-38.06c1.95-3.4-.51-6.94-.73-10.44 2.37-2.72 5.93-3.99 8.89-5.94l61.01-35.05c10.71-6.23 21.36-12.63 32.33-18.39.29 6.01-.07 12.03.4 18.04l1.71.1c6.97.01 13.96.22 20.93-.12l1.11-.2c1.19-9.08-.88-18.47 1.49-27.38l-1.4-1.49 44.79-.08 1.19-.12c.99-3.28.71-6.82 1.66-10.09 2.28-2.24 5.31-3.46 8.03-5.07l30.48-17.54z"/><path fill="#16bdff" d="M260.47 253.99l1.31-.18v19.79l-46.02-.01-.01 16.25 46.02.02-.04 29.17-1.71-.1c-.47-6.01-.11-12.03-.4-18.04-10.97 5.76-21.62 12.16-32.33 18.39l-61.01 35.05c-2.96 1.95-6.52 3.22-8.89 5.94.22 3.5 2.68 7.04.73 10.44-1.05-3.05-1.76-6.2-2.78-9.25-.28-1.42-1.83-1.66-2.91-2.21-14.56-5.89-28.14-14.13-40.15-24.25l.02-.29.07-1.65c-1.95-2.35-4.22-4.41-6.41-6.53 1.54-1.38 3.15-2.69 5-3.63 7.77-4.08 15.15-8.85 22.83-13.1 8.64-5.02 17.46-9.74 25.93-15.04 2.66-1.48 5.39-3.63 8.62-3.13 6.89.64 13.82.44 20.73.14l-6.5-1.86 6.63-.06 1.4-1.24c.63-3.82.26-7.72.32-11.58 9.81-5.96 19.99-11.29 29.76-17.32 2.9-1.64 5.81-3.86 9.34-3.6 3.99.04 7.96-.38 11.92-.85 6.16-.73 12.54.82 18.53-1.27z"/><path fill="#30d3ff" d="M379.06 281.1c13.02-7.13 25.48-15.31 38.77-21.95-.58 3.84-2.76 7.86-.92 11.66-7.31 26.91-23.76 51.14-45.85 68.11-22.84 17.69-50.7 27.85-78.97 32.72-11.41 1.82-22.97 3.35-34.51 3.42-5-1.84-10.37-.89-15.57-1.2-2.01.18-4.74-.7-5.92 1.49-1.31 1.59-2.88 2.91-4.48 4.19l-45.78 38.31c-3.1 2.78-7.92 3.18-11.41.88-3.54-2.01-4.56-6.26-5.32-9.96 1.18-2.09.65-4.44.3-6.66 13.6-8.49 27.76-16.04 41.56-24.2l168.1-96.81z"/><path fill="#ff5a7d" d="M438.38 259.67c10.78 12.91 15.7 29.84 16.85 46.4.95 15.87-.9 32.23-7.53 46.8-1.49-5.54 3.33-10.64 2.83-16.3-5.56-3.09-11.43-5.7-16.58-9.51-4.67-3.34-11.4-4.29-14.32-9.68-1.12 1.37-2.31 2.67-3.45 4.02l-.58-1.39c11.82-18.17 19.48-38.92 22.78-60.34z"/><path fill="#05c2ff" d="M282.63 289.76l1.23.08 1.4 1.49c-2.37 8.91-.3 18.3-1.49 27.38l-1.11.2-.03-29.15z"/><path fill="#ff6e86" d="M416.18 321.4l3.45-4.02c2.92 5.39 9.65 6.34 14.32 9.68 5.15 3.81 11.02 6.42 16.58 9.51.5 5.66-4.32 10.76-2.83 16.3-5.24 12.09-14.14 22.5-24.99 29.92l-.29-1.62c2.24-1.92 4.52-3.78 6.6-5.87-8.23-4.96-16.68-9.54-24.96-14.39-5.17-2.8-10.07-6.1-15.46-8.46-4.55 3.94-9.75 7.02-14.73 10.38-2.29 1.38-4.68 3.3-7.54 2.71 19.56-11.26 36.6-26.81 49.27-45.53l.58 1.39z"/><path fill="#ff828f" d="M388.6 352.45c5.39 2.36 10.29 5.66 15.46 8.46l24.96 14.39c-2.08 2.09-4.36 3.95-6.6 5.87.08.41.22 1.22.29 1.62l.03.14c-6.13 4.18-12.79 7.55-19.73 10.16l-8.12 27.81c-1.51 4.66-7.64 6.64-11.69 3.94 2.67-.58 5.52-.58 8.05-1.66 2.09-1.67 2.92-4.5 2.77-7.1-1.74-2.13-4.35-3.2-6.67-4.53l-50.02-28.93c-5.77-4.06-12.07 3.42-18.05.44 16.24-3.85 32.11-9.45 46.75-17.53l.3.01c2.86.59 5.25-1.33 7.54-2.71 4.98-3.36 10.18-6.44 14.73-10.38z"/><path fill="#15ceff" d="M236.09 375.35c1.18-2.19 3.91-1.31 5.92-1.49 5.2.31 10.57-.64 15.57 1.2-7.14.63-14.33.28-21.49.29z"/><path fill="#ff8d99" d="M319.28 383.06c5.98 2.98 12.28-4.5 18.05-.44l50.02 28.93c2.32 1.33 4.93 2.4 6.67 4.53.15 2.6-.68 5.43-2.77 7.1-2.53 1.08-5.38 1.08-8.05 1.66l-.22.03-27.09-22.75c-1.02-1.03-2.58-.6-3.86-.7-22.14.26-44.82-2.85-64.85-12.75l.23-.98c10.75-.27 21.32-2.67 31.87-4.63z"/><path fill="#df3a42" d="M172.17 487.28c2.88-4.68 8.27-7.47 13.74-7.37l69.97-.01-.01 32.1h-72.24c-3.38-.71-6.71-2.08-9.18-4.54-5.42-5.07-6.46-14.04-2.28-20.18z"/><path fill="#407af5" d="M255.88 479.9l71.2.07c9.02.14 16.53 9.09 15.12 17.99-.75 7-6.54 12.56-13.27 14.04h-73.06l.01-32.1z"/></svg>