<svg xmlns="http://www.w3.org/2000/svg" width="514" height="514"><path d="M273.47 233.68c9.98-4.44 22.36 3.53 23.08 14.25 1.15 9.44-7.07 18.63-16.56 18.63-7.57.26-14.83-5.14-16.76-12.46-2.59-8.11 2.33-17.52 10.24-20.42zm-70.92 15.03c4.37-.97 9.35-1.07 13.32 1.32 5.39 2.86 9.03 8.88 8.86 15.01.2 8.83-7.81 17.12-16.73 16.78-8.12.61-15.6-5.97-17.01-13.8-1.71-8.14 3.71-16.81 11.56-19.31z" fill="#fff"/><path d="M378.93 118.38c2.6 2.69 4.37 6.01 6.07 9.31-1.82 1.18-3.8 2.19-5.33 3.75-.55 3.84-.17 7.73-.23 11.6L379.36 272c-.03 6.4.11 12.81-.22 19.21-9.29-4.49-19.12-7.63-28.95-10.7-6.02-1.86-12.74-2.01-18.13-5.53-5.09-3.54-5.03-10.43-5.38-15.96l-.09-104.96c0-3.05 0-6.1.31-9.13l1.51-1.35 44.4-9.94c2.29-.83 6.04-1.52 5.78-4.66.2-3.53.09-7.07.34-10.6zM1 512.61l.41-.03.19.42H1zm511.59-.02l.41-.19v.6h-.39z" fill="#4dc89a"/><path d="M337.45 100.62c5.18-1.35 10.54.08 15.54 1.49 9.94 2.62 19.08 8.28 25.95 15.9l-.01.37c-.25 3.53-.14 7.07-.34 10.6.26 3.14-3.49 3.83-5.78 4.66-14.72 3.66-29.64 6.42-44.4 9.94 3.74-10.21.85-21.25 2.27-31.78.87-4.29 2.3-9.37 6.77-11.18z" fill="#a3eacb"/><path d="M379.67 131.44c1.53-1.56 3.51-2.57 5.33-3.75 3.18 7.34 4.81 15.35 4.85 23.34l.03 120.95c-.19 11.97 1.31 24.67-4.15 35.79-5.49 9.75-16.24 15.03-26.38 18.69-17.94 5.03-36.32 8.29-54.53 12.2l-82.46 17.94c-12.3 2.84-24.75 5.15-36.81 8.94-10.74 3.82-20.83 9.44-30 16.19-5.14 3.75-9.51 8.4-14.33 12.53-3.42 2.91-5.95 6.73-9.45 9.55-1.29 1.19-3.15 1.32-4.79.95-2.15-.98-1.97-3.78-2.12-5.75l.02-185.06c.49-7.29 2.3-15.1 7.63-20.44 3.36-3.61 7.76-6.18 12.52-7.45 10.25-2.78 20.73-4.55 31.12-6.7l97.41-20.94c11.76-2.8 23.75-4.56 35.46-7.57 6.07-1.54 12.75-1.96 17.88-5.92-.31 3.03-.31 6.08-.31 9.13l.09 104.96c.35 5.53.29 12.42 5.38 15.96 5.39 3.52 12.11 3.67 18.13 5.53 9.83 3.07 19.66 6.21 28.95 10.7.33-6.4.19-12.81.22-19.21l.08-128.96c.06-3.87-.32-7.76.23-11.6m-106.2 102.24c-7.91 2.9-12.83 12.31-10.24 20.42 1.93 7.32 9.19 12.72 16.76 12.46 9.49 0 17.71-9.19 16.56-18.63-.72-10.72-13.1-18.69-23.08-14.25m-70.92 15.03c-7.85 2.5-13.27 11.17-11.56 19.31 1.41 7.83 8.89 14.41 17.01 13.8 8.92.34 16.93-7.95 16.73-16.78.17-6.13-3.47-12.15-8.86-15.01-3.97-2.39-8.95-2.29-13.32-1.32z" fill="#00b173"/></svg>