<svg xmlns="http://www.w3.org/2000/svg" xmlns:xlink="http://www.w3.org/1999/xlink" width="1340" height="512"><defs><linearGradient x1="-0.000262622415%" y1="49.9999045%" x2="99.9998131%" y2="49.9999045%" id="A"><stop stop-color="#d2deff" offset="4.9%"/><stop stop-color="#dcfdee" offset="99.9%"/></linearGradient><path id="B" d="M323.638 347.264h-69.764c-44.052 0-79.764-35.711-79.764-79.764s35.711-79.764 79.764-79.764 79.764 35.711 79.764 79.764v69.764c0 5.523-4.477 10-10 10h0z"/><path id="C" d="M71.447 105.678a5 5 0 0 1-5-5 6.01 6.01 0 0 0-6-6 5 5 0 1 1 0-10 6.01 6.01 0 0 0 6-6 5 5 0 1 1 10 0 6.01 6.01 0 0 0 6 6 5 5 0 1 1 0 10 6.01 6.01 0 0 0-6 6 5 5 0 0 1-5 5h0z"/></defs><g fill-rule="nonzero"><path d="M456.173 27.352C392.416-10.635 309.915-8.526 247.3 30.393c-35.18 21.866-62.374 53.403-93.212 80.552-27.022 23.789-58.445 40.758-86.353 63.204-101.21 81.403-91.553 300.961 50.962 330.125 61.777 12.642 146.21 16.696 182.519-43.642 34.62-57.531 46.232-116.383 113.876-146.942 23.573-10.65 62.975-10.113 78.944-33.45 20.152-29.45-4.853-60.043-18.192-85.707-17.19-33.074-20.795-65.682-8.699-101.16 10.298-30.211 17.549-43.782-10.972-66.021z" fill="url(#A)"/><path d="M452.541 172.682c0-44.052-35.711-79.764-79.764-79.764-14.046 0-27.236 3.643-38.698 10.017C308.862 91.083 280.708 84.446 251 84.446 142.998 84.446 55.446 171.998 55.446 280S142.998 475.554 251 475.554 446.554 388.001 446.554 280c0-20.997-3.323-41.215-9.448-60.173 9.697-13.208 15.435-29.504 15.435-47.145z" fill="#2626bc" opacity=".1"/><circle fill="#dcfdee" cx="251" cy="256" r="195.554"/><g fill="#97ffd2"><path d="M440.9 209.18c-14 22.95-39.27 38.27-68.12 38.27h-69.77c-5.52 0-10-4.48-10-10v-69.77c0-22.02 8.93-41.96 23.37-56.4 10.3-10.3 23.41-17.8 38.08-21.25 42.55 26.58 74.14 69.07 86.44 119.15z"/><use xlink:href="#B"/></g><path d="M205.29 421.23c-1.14 5.49.67 16.92.69 25.11-20.96-4.94-40.61-13.24-58.36-24.32-6.55-17.28-3.25-34.57-3.89-54.6-.91-28.26-18-29.64-38.86-42.38-17.39-10.63-33.36-21.37-46.24-33.73-2.09-11.45-3.18-23.25-3.18-35.31 0-39.03 11.43-75.38 31.14-105.9 3.43 4.41 8.44 5.79 16.88 6.17 5.21-5.27 10.71-6.54 16.51-3.81l2.46 5.67c-.46 4.2.71 7.86 3.5 10.99 6.04.92 11.89.18 17.56-2.22 8.54-1.73 17.96-7.45 26.69-7.73 35.56-1.13 12.9 23.47 2.14 39.25-12.29 18.04-17.82 43.59-40.59 51.96-16.65 6.12-36.94-2.23-37.71 24-.61 20.69 23.38 42.65 41.47 48.87 22.14 7.6 50.63-3.67 72.15 9.35 16.17 9.78 11.76 41.76 7.77 60.63-2.04 9.64-8.08 18.09-10.13 28zm26.06-313.94c-4.92 7.3-12.54 13.09-14.9 21.56-2.52 9.03 1.11 20.32-5.5 26.96-10.23-6.92-14.68-20.14-14.24-32.47.27-7.31 1.37-16.14-4.52-20.48-5.22-3.85-14.61-2.76-16.44-8.99-.78-2.66.41-5.64-.52-8.25-1.01-2.87-4.14-4.29-6.44-6.28-.2-.17-.39-.36-.57-.56 21.68-10.14 45.52-16.42 70.64-17.96.9 15.98 1.43 33.21-7.51 46.47h0zM446.55 256c0 79.09-46.95 147.21-114.49 178.01 2.51-7.47 7.38-14.59 11.05-21.73 6.45-12.55 9.48-26.59 11.13-40.6.88-7.48.59-16.65-5.9-20.47-3.38-1.99-7.53-1.88-11.45-1.94a98.43 98.43 0 0 1-20.59-2.51c-7.24-1.68-14.69-4.44-19.34-10.25-6.94-8.68-5.57-21.12-3.85-32.1l5.31-33.83c1.45-9.27 4.11-20.13 12.86-23.55 5.99-2.34 12.67-.19 19.09.29 18.87 1.39 36.4-12.01 55.29-11.01 3.31.18 6.69.79 9.88-.08 2.29-.63 4.33-2 6.06-3.63 9.93-9.29 9.6-25.07 6.7-38.36-1.27-5.83-3.02-11.83-7.07-16.21-4.06-4.39-11.04-6.59-16.18-3.54-8.26 4.9-7.39 19.61-16.51 22.64-8.05 2.66-16.37-6.73-24.48-4.27-11.32 3.42-7.06 23.23-17.13 29.42-5.22 3.2-12.02 1.2-17.46-1.59-6.76-3.48-13.48-8.95-14.36-16.49-1.17-10.06 8.27-17.93 17.05-22.98s18.97-10.68 20.96-20.6c.67-3.3.3-6.74 1.01-10.03 2.04-9.57 12.12-14.99 21.44-17.97s19.68-5.27 25.9-12.83c1.5-1.82 2.68-3.87 3.84-5.93 37.71 35.66 61.24 86.15 61.24 142.14h0z" fill="#02ffb3"/><path d="M385.31 113.86c-1.16 2.06-2.34 4.11-3.84 5.93-6.22 7.56-16.58 9.85-25.9 12.83s-19.4 8.4-21.44 17.97c-.71 3.29-.34 6.73-1.01 10.03-1.99 9.92-12.18 15.55-20.96 20.6s-18.22 12.92-17.05 22.98c.88 7.54 7.6 13.01 14.36 16.49 5.44 2.79 12.24 4.79 17.46 1.59 10.07-6.19 5.81-26 17.13-29.42 8.11-2.46 16.43 6.93 24.48 4.27 9.12-3.03 8.25-17.74 16.51-22.64 5.14-3.05 12.12-.85 16.18 3.54 4.05 4.38 5.8 10.38 7.07 16.21 2.9 13.29 3.23 29.07-6.7 38.36-1.73 1.63-3.77 3-6.06 3.63-3.19.87-6.57.26-9.88.08-16.914-.895-32.738 9.744-49.41 10.983v.157h36.53c28.85 0 54.12-15.32 68.12-38.27-9.1-37.05-28.75-69.94-55.59-95.32h0zM333.64 267.5v69.76c0 5.523-4.477 10-10 10h-5.03a63.51 63.51 0 0 1-2.31-.5c-7.24-1.68-14.69-4.44-19.34-10.25-6.94-8.68-5.57-21.12-3.85-32.1l5.31-33.83c1.45-9.27 4.11-20.13 12.86-23.55 5.99-2.34 12.67-.19 19.09.29.23.02.47.03.7.04 1.68 6.43 2.57 13.18 2.57 20.14h0z" fill="#01eca5"/><path d="M415.319 462.34c-1.28 0-2.559-.488-3.536-1.465l-11-11a5 5 0 0 1 0-7.07l11-11a5 5 0 0 1 7.071 0l11 11a5 5 0 0 1 0 7.07l-11 11a4.98 4.98 0 0 1-3.535 1.465h0zm-3.929-16l3.929 3.929 3.929-3.929-3.929-3.929-3.929 3.929zM66.447 425.22c-1.28 0-2.559-.488-3.536-1.465l-11-11a5 5 0 0 1 0-7.07l11-11a5 5 0 0 1 7.071 0l11 11a5 5 0 0 1 0 7.07l-11 11c-.976.976-2.255 1.465-3.535 1.465h0zm-3.929-16l3.929 3.929 3.929-3.929-3.929-3.929-3.929 3.929z" fill="#6583fe"/><g fill="#01eca5"><use xlink:href="#C"/><use xlink:href="#C" x="375.103" y="299.328"/></g><g fill="#ff7eb8"><use xlink:href="#C" x="42.723" y="-26.76"/><use xlink:href="#B" y="-19"/></g><path d="M333.62 247.45h-30.61c-5.52 0-10-4.48-10-10v-58.46c6.35 3.58 12.15 8 17.27 13.11 14.2 14.21 23.07 33.75 23.34 55.35h0z" fill="#ff5ba8"/><g fill="#fff"><path d="M284.624 293.743c-2.013 0-3.911-1.224-4.672-3.217l-26.078-68.259-26.078 68.259a5 5 0 1 1-9.342-3.568l30.749-80.484a5 5 0 0 1 9.342 0l30.749 80.484a5 5 0 0 1-2.886 6.455c-.569.218-1.174.33-1.784.33z"/><path d="M256.889 271.735h-23.815a5 5 0 1 1 0-10h23.815a5 5 0 1 1 0 10z"/></g><path d="M303.014 228.446h69.764c44.052 0 79.764-35.711 79.764-79.764s-35.711-79.764-79.764-79.764-79.764 35.711-79.764 79.764v69.764c0 5.523 4.477 10 10 10h0z" fill="#9fb0fe"/><g fill="#fff"><path d="M372.777 132.991a5 5 0 0 1-5-5v-21.81a5 5 0 1 1 10 0v21.81a5 5 0 0 1-5 5h0z"/><path d="M412.119 135.591h-78.683a5 5 0 1 1 0-10h78.683a5 5 0 1 1 0 10h0z"/><path d="M342.621 196.183c-2.316 0-4.395-1.618-4.889-3.975a5 5 0 0 1 3.868-5.92c20.558-4.311 35.114-15.005 43.264-31.786 6.104-12.567 6.174-23.799 6.174-23.911a5 5 0 1 1 10 0c0 .551-.082 13.666-7.179 28.28-6.581 13.55-20.632 31.003-50.208 37.204a5.01 5.01 0 0 1-1.03.108h0z"/><path d="M402.074 196.183c-.301 0-.607-.027-.914-.084-34.116-6.301-47.501-36.69-48.054-37.98a5 5 0 0 1 5.18-6.941 5 5 0 0 1 4.007 2.991c.116.267 11.943 26.789 40.684 32.097a5 5 0 0 1 4.009 5.825c-.446 2.407-2.548 4.092-4.912 4.092h0z"/></g><path d="M457.541 148.682c0-16.469-4.749-32.456-13.732-46.232a5 5 0 1 0-8.376 5.463 74.45 74.45 0 0 1 12.108 40.77c0 41.225-33.539 74.764-74.764 74.764h-69.764c-2.757 0-5-2.243-5-5v-69.764c0-41.225 33.539-74.764 74.764-74.764 14.302 0 28.218 4.07 40.246 11.772 2.326 1.487 5.417.81 6.907-1.515a5 5 0 0 0-1.515-6.907c-13.64-8.734-29.421-13.351-45.638-13.351a84.21 84.21 0 0 0-38.816 9.448c-26.12-11.886-54.026-17.92-82.961-17.92-110.373 0-200.2 89.623-200.546 199.916-.027.211-.064.419-.064.637s.037.426.064.637C50.8 366.931 140.627 456.554 251 456.554s200.2-89.623 200.546-199.916c.027-.211.064-.419.064-.637 0-.211-.037-.411-.062-.615-.06-20.029-3.065-39.782-8.932-58.742 9.404-13.65 14.925-30.17 14.925-47.962zm-120.239 84.763h29.644c.422 5.809.683 11.678.777 17.555h-29.085v-2.5c0-5.061-.449-10.105-1.336-15.055zm-34.288 0h24.103c1.007 4.93 1.522 9.981 1.522 15.055v69.764c0 2.757-2.243 5-5 5h-9.808a5 5 0 1 0 0 10h9.808c8.28-.011 14.989-6.72 15-15V261h29.099c-.734 46.247-11.62 88.439-29.142 120.868-25.605-7.82-53.762-12.179-82.595-12.631v-35.974h24.17a5 5 0 1 0 0-10h-26.296c-41.225 0-74.764-33.539-74.764-74.764s33.539-74.764 74.764-74.764c11.881 0 23.648 2.85 34.14 8.241v36.468c.01 8.28 6.719 14.989 14.999 15.001h0zm-15-84.763v22.227c-10.055-4.418-20.969-6.861-32.014-7.139v-21.008c10.935-.172 21.771-.908 32.41-2.179-.254 2.667-.396 5.366-.396 8.099h0zM246 132.76c-27.035-.437-53.418-4.403-77.484-11.52 20.04-32.661 47.299-53.522 77.484-55.608v67.128zm0 10.002v21.353c-43.059 3.987-76.89 40.302-76.89 84.385 0 .838.039 1.667.063 2.5h-34.911c.734-46.247 11.62-88.439 29.142-120.868 25.606 7.82 53.763 12.178 82.596 12.63zM170.039 261c5.683 38.28 37.05 68.282 75.961 71.885v36.353c-28.833.452-56.99 4.811-82.595 12.631-17.522-32.43-28.408-74.621-29.142-120.869h35.776zM246 379.24v67.128c-30.185-2.086-57.444-22.946-77.484-55.608 24.066-7.117 50.449-11.084 77.484-11.52zm10 0c27.035.437 53.418 4.403 77.484 11.52-20.04 32.661-47.299 53.522-77.484 55.608V379.24zm34.043-248.936c-11.145 1.438-22.534 2.269-34.043 2.456V65.644c19.02 1.339 37.592 10.286 54.034 26.105-9.733 10.716-16.745 23.935-19.991 38.555zm33.494-50.552c-2.192 1.57-4.305 3.241-6.334 5.008-4.817-4.658-9.814-8.782-14.956-12.357a189.03 189.03 0 0 1 21.29 7.349zm-162.891 35.327l-1.861 3.061c-9.318-3.174-18.239-6.832-26.646-10.963 19.648-15.724 42.458-27.649 67.317-34.643-14.339 10.046-27.486 24.361-38.81 42.545h0zm-36.789-.883c9.388 4.854 19.415 9.133 29.942 12.803-18.469 34.783-28.836 78.113-29.538 124.001h-63.75c1.405-54.253 25.604-102.929 63.346-136.804zM60.512 261h63.75c.702 45.888 11.069 89.218 29.537 124.001-10.527 3.67-20.554 7.949-29.942 12.803C86.115 363.929 61.916 315.253 60.512 261zm71.627 143.823c8.407-4.131 17.327-7.79 26.646-10.963l1.861 3.061c11.324 18.185 24.471 32.499 38.811 42.544-24.859-6.993-47.67-18.918-67.318-34.642zm209.215-7.902l1.861-3.061c9.318 3.174 18.239 6.832 26.646 10.963-19.648 15.724-42.458 27.649-67.317 34.643 14.339-10.046 27.486-24.361 38.81-42.545zm36.789.883c-9.388-4.854-19.415-9.133-29.942-12.803 18.468-34.783 28.835-78.112 29.537-124.001h63.75c-1.404 54.253-25.603 102.929-63.345 136.804zM441.482 251h-63.759a323.18 323.18 0 0 0-.756-17.661c22.882-1.119 43.4-11.361 58.008-27.149 3.935 14.572 6.114 29.593 6.507 44.81zm171.55 97.28c12.459 0 24.021-2.517 34.688-7.552s19.925-11.776 27.776-20.224 13.952-18.219 18.304-29.312 6.528-22.699 6.528-34.816c0-11.435-2.091-22.656-6.272-33.664s-10.069-20.864-17.664-29.568S659.667 177.4 649 172.024s-22.485-8.064-35.456-8.064c-12.629 0-24.277 2.517-34.944 7.552s-19.883 11.819-27.648 20.352-13.867 18.347-18.304 29.44-6.656 22.699-6.656 34.816c0 11.605 2.091 22.955 6.272 34.048s10.112 20.949 17.792 29.568 16.853 15.531 27.52 20.736 22.485 7.808 35.456 7.808zm.256-25.856c-8.875 0-16.896-1.835-24.064-5.504s-13.269-8.576-18.304-14.72-8.917-13.227-11.648-21.248-4.096-16.299-4.096-24.832c0-8.192 1.323-16.256 3.968-24.192s6.443-14.976 11.392-21.12 11.008-11.136 18.176-14.976 15.36-5.76 24.576-5.76c8.704 0 16.597 1.835 23.68 5.504s13.141 8.533 18.176 14.592 8.917 13.056 11.648 20.992 4.096 16.256 4.096 24.96a77.15 77.15 0 0 1-3.84 24.064c-2.56 7.851-6.315 14.933-11.264 21.248s-10.965 11.392-18.048 15.232-15.232 5.76-24.448 5.76zM754.6 401.528v-79.616c4.779 8.192 11.264 14.848 19.456 19.968s17.664 7.68 28.416 7.68c8.704 0 16.683-1.835 23.936-5.504s13.525-8.619 18.816-14.848 9.387-13.568 12.288-22.016 4.352-17.536 4.352-27.264c0-9.216-1.579-18.005-4.736-26.368s-7.552-15.701-13.184-22.016-12.288-11.349-19.968-15.104-16.128-5.632-25.344-5.632c-10.24 0-19.413 2.389-27.52 7.168s-14.72 11.179-19.84 19.2h0v-24.064H726.44v188.416h28.16zm38.656-76.032c-4.096 0-8.107-.768-12.032-2.304a44.13 44.13 0 0 1-10.88-6.144c-3.328-2.56-6.357-5.632-9.088-9.216s-4.949-7.424-6.656-11.52h0V261.24c1.024-3.755 2.816-7.211 5.376-10.368s5.547-5.931 8.96-8.32 7.083-4.267 11.008-5.632 7.68-2.048 11.264-2.048c5.973 0 11.52 1.195 16.64 3.584s9.515 5.632 13.184 9.728 6.571 8.875 8.704 14.336 3.2 11.264 3.2 17.408c0 5.803-.939 11.435-2.816 16.896s-4.565 10.325-8.064 14.592a40.4 40.4 0 0 1-12.544 10.24c-4.864 2.56-10.283 3.84-16.256 3.84zM947.88 349.56c14.165 0 26.581-3.2 37.248-9.6s18.304-14.635 22.912-24.704h0l-24.064-6.912c-1.365 3.072-3.243 5.888-5.632 8.448a35.83 35.83 0 0 1-8.192 6.528c-3.072 1.792-6.443 3.157-10.112 4.096a44.76 44.76 0 0 1-11.136 1.408c-5.12 0-10.027-.939-14.72-2.816s-8.875-4.565-12.544-8.064-6.656-7.637-8.96-12.416-3.712-10.155-4.224-16.128h107.264c.171-1.195.341-2.688.512-4.48a60.9 60.9 0 0 0 .256-5.76c0-9.045-1.579-17.707-4.736-25.984s-7.723-15.531-13.696-21.76-13.184-11.221-21.632-14.976-17.877-5.632-28.288-5.632c-10.581 0-20.139 1.835-28.672 5.504s-15.829 8.704-21.888 15.104-10.752 13.824-14.08 22.272-4.992 17.365-4.992 26.752 1.664 18.261 4.992 26.624 8.021 15.701 14.08 22.016 13.355 11.307 21.888 14.976 18.005 5.504 28.416 5.504zm40.704-79.616h-80.896c.512-5.632 1.877-10.837 4.096-15.616s5.12-8.832 8.704-12.16 7.723-5.931 12.416-7.808 9.685-2.816 14.976-2.816 10.325.939 15.104 2.816 8.96 4.48 12.544 7.808 6.528 7.381 8.832 12.16 3.712 9.984 4.224 15.616h0zM1067.688 347v-79.616c1.536-4.608 3.712-8.832 6.528-12.672s6.016-7.168 9.6-9.984 7.424-4.992 11.52-6.528 8.192-2.304 12.288-2.304c7.851 0 13.781 2.859 17.792 8.576s6.016 14.891 6.016 27.52h0V347h28.16v-81.664c0-7.339-.597-14.293-1.792-20.864s-3.285-12.373-6.272-17.408-7.04-9.003-12.16-11.904-11.691-4.352-19.712-4.352c-11.776 0-22.528 2.603-32.256 7.808s-17.152 12.331-22.272 21.376h0v-26.88h-25.6V347h28.16zm254.464 0v-25.344h-97.536V165.24h-28.672V347h126.208z" fill="#2626bc"/></g></svg>