<svg xmlns="http://www.w3.org/2000/svg" width="341.333" height="341.333" viewBox="0 0 256 256"><g fill="#fff"><path d="M84.85 88.57l5.74-.07-1.84 4.25 15.46-.01-.61 4.27c-5.75.3-11.51.14-17.26.2l-2.8 3.8c5.4.01 10.91-.69 16.25.32l.87 1c.12 3.31-.81 6.54-1.39 9.77 2.57.49 2 2.77 1.79 4.73l-2.64.53-1.41 7.87 4.01.11-.99 4.27-3.85.02-1.26 7.24c-3.19.03-6.38.02-9.56-.05l-1.25-4.5c2.59-.28 7.06 1.2 7.11-2.76l-15.81.04 3.47-12.07-2.53-.67a9.39 9.39 0 0 1 .73-3.67l2.9-.81 2.63-10.37-5.29 3.91c.34-2.08.77-4.15 1.16-6.22-2.02.21-4.05.26-6.08.31-.63-3.78-1.37-7.54-2.13-11.3l4.99.01 2.7 10.69c3.09-3.04 5.6-6.66 6.89-10.84m.07 24.11l9.27.28c.6-2.54.96-5.12 1.22-7.72-2.8.01-5.6-.15-8.4.03-.95 2.39-1.47 4.92-2.09 7.41m-.99 4.34l-2.3 8.29 10.38.01c.51-2.76.97-5.53 1.4-8.29-3.16.06-6.32.04-9.48-.01zM57.82 91.49c3.83.33 8.26-.99 11.69.88.47 3.85-.76 7.66-1.2 11.47l-3.22 23.15c-4.04.14-8.08.13-12.12.11l4.85-35.61m4.39 4.49c-1.07 9.03-2.66 17.98-3.8 27l2.41-.83c1.54-8.62 2.25-17.38 3.85-26l-2.46-.17zm106.97-1.42l6.22-.08-2.14 11.35c4.41.1 8.99-.63 13.25.81 2.15.83 2.92 3.3 2.43 5.41-.96 7.22-2.53 14.34-3.68 21.53-2.05.01-4.09 0-6.13-.01l3.32-18.49c.06-1.3.79-2.97-.59-3.85-3.09-.76-6.31-.35-9.45-.37l-3.9 22.71h-6.17l6.84-39.01zm30.16.49l6.3-.19-1.23 6.45-6.28-.05 1.21-6.21z"/><path d="M69.37 101.84l4.66.28c.47 3.56 2.42 7.14 1.73 10.69-1.29 1.31-3.16.85-4.8 1.07-.62-4-1.26-8-1.59-12.04zm123.26 31.77l4.96-27.88 6.06.04-4.84 27.76-6.18.08zM86.61 106.59l5.23.11 1.63 4.65-5.28-.14-1.58-4.62zm-16.96 11.86l5.85.06c-2.72 6.2-5.4 12.44-8.73 18.34l-6.35.12c3.36-6.03 6.71-12.08 9.23-18.52zm14.43-.01h4.9l2.36 5.41-5.52.03-1.74-5.44z"/></g><g fill="#a945fd"><path d="M36.84 63.77c11.5-10.25 26.77-16.1 42.17-16.27 12.95-.24 25.92 3.57 36.72 10.72 13.26 8.69 23.1 22.4 27.13 37.74 3.81 14.06 2.67 29.38-3.15 42.72-6.5 15.14-18.87 27.69-34.05 34.13-6.34 2.81-13.15 4.29-20 5.13 7.32 12.27 20.08 21.15 34.21 23.46 4.14.73 8.36.76 12.55.76-2.26.23-4.46.82-6.41 2.02l4.53.36c-.15 3.96-.13 7.93-.02 11.89a89.34 89.34 0 0 0-3.67.13l-1.89 1.58-.17.15c-23.31-.91-45.36-15.6-55.32-36.67-1.1-1.97-1.54-5.02-4.3-5.2-15.73-3.55-29.88-13.31-38.96-26.62-9.46-13.76-13.42-31.25-10.57-47.73 2.43-14.69 10.04-28.45 21.2-38.3m48.01 24.8c-1.29 4.18-3.8 7.8-6.89 10.84l-2.7-10.69c-1.67 0-3.33-.01-4.99-.01l2.13 11.3c2.03-.05 4.06-.1 6.08-.31l-1.16 6.22c1.8-1.26 3.51-2.62 5.29-3.91l-2.63 10.37-2.9.81a9.39 9.39 0 0 0-.73 3.67l2.53.67c-1.22 4.01-2.3 8.05-3.47 12.07l15.81-.04c-.05 3.96-4.52 2.48-7.11 2.76l1.25 4.5c3.18.07 6.37.08 9.56.05l1.26-7.24 3.85-.02.99-4.27-4.01-.11 1.41-7.87 2.64-.53c.21-1.96.78-4.24-1.79-4.73.58-3.23 1.51-6.46 1.39-9.77l-.87-1c-5.34-1.01-10.85-.31-16.25-.32l2.8-3.8c5.75-.06 11.51.1 17.26-.2l.61-4.27c-5.16-.02-10.31-.03-15.46.01l1.84-4.25-5.74.07m-27.03 2.92l-4.85 35.61 12.12-.11c1.25-7.69 2.25-15.42 3.22-23.15.44-3.81 1.67-7.62 1.2-11.47-3.43-1.87-7.86-.55-11.69-.88m11.55 10.35c.33 4.04.97 8.04 1.59 12.04 1.64-.22 3.51.24 4.8-1.07.69-3.55-1.26-7.13-1.73-10.69l-4.66-.28m.28 16.61c-2.52 6.44-5.87 12.49-9.23 18.52l6.35-.12c3.33-5.9 6.01-12.14 8.73-18.34l-5.85-.06z"/><path d="M62.21 95.98l2.46.17c-1.6 8.62-2.31 17.38-3.85 26-.61.2-1.81.62-2.41.83l3.8-27zm22.71 16.7c.62-2.49 1.14-5.02 2.09-7.41 2.8-.18 5.6-.02 8.4-.03-.26 2.6-.62 5.18-1.22 7.72l-9.27-.28m1.69-6.09l1.58 4.62 5.28.14-1.63-4.65-5.23-.11zm-2.68 10.43l9.48.01-1.4 8.29c-3.46.04-6.92.01-10.38-.01l2.3-8.29m.15 1.42c.55 1.82 1.17 3.62 1.74 5.44l5.52-.03c-.75-1.82-1.58-3.6-2.36-5.41h-4.9z"/></g><path fill="#383739" d="M131.41 65.07c9.6-8.67 21.55-14.82 34.4-16.75 16.99-2.81 35.01 1.54 48.83 11.81 14.13 10.28 23.69 26.48 26 43.78 1.68 11.57.01 23.56-4.54 34.32-6.92 16.54-20.95 30.04-37.9 36.01-2.98 1.12-6.12 1.7-9.15 2.68-.99.87-1.29 2.24-1.9 3.37-6.88 15.18-19.85 27.56-35.44 33.5-8.47 3.37-17.69 4.52-26.75 4.35l1.89-1.58a89.34 89.34 0 0 1 3.67-.13c-.11-3.96-.13-7.93.02-11.89l-4.53-.36c1.95-1.2 4.15-1.79 6.41-2.02 15.61-1.49 30-10.88 38.02-24.3-14.49-1.23-28.44-7.54-39.01-17.52 10.91-11.7 17.54-27.29 18.46-43.25 1.29-18.91-5.63-38.12-18.48-52.02m37.77 29.49l-6.84 39.01h6.17l3.9-22.71c3.14.02 6.36-.39 9.45.37 1.38.88.65 2.55.59 3.85l-3.32 18.49 6.13.01c1.15-7.19 2.72-14.31 3.68-21.53.49-2.11-.28-4.58-2.43-5.41-4.26-1.44-8.84-.71-13.25-.81l2.14-11.35-6.22.08m30.16.49l-1.21 6.21 6.28.05 1.23-6.45c-2.1.1-4.2.06-6.3.19m-6.71 38.56l6.18-.08 4.84-27.76c-2.02 0-4.04-.01-6.06-.04l-4.96 27.88z"/></svg>