<svg xmlns="http://www.w3.org/2000/svg" viewBox="0 0 2500 2500"><path d="M2500 2125c0 207.1-167.9 375-375 375H375c-207.1 0-375-167.9-375-375V375C0 167.9 167.9 0 375 0h1750c207.1 0 375 167.9 375 375v1750z" fill="#2dc100"/><path d="M1673.4 932.3c-201.8 10.5-377.2 71.7-519.7 209.9-144 139.6-209.7 310.7-191.7 522.8-78.9-9.8-150.7-20.5-222.9-26.6-25-2.1-54.6.9-75.7 12.8-70.1 39.6-137.4 84.3-217.1 134.1 14.6-66.2 24.1-124.1 40.9-179.8 12.3-41 6.6-63.7-31.1-90.4-242.2-171-344.3-426.9-267.9-690.4C258.8 581 432.4 433.1 668.3 356.1c322-105.2 683.8 2.1 879.6 257.7 70.6 92.3 114 196 125.5 318.5h0zm-928.7-82.1c1.9-48.2-39.9-91.6-89.5-93.1-50.8-1.5-92.5 37.3-94 87.4-1.5 50.7 37.3 91.4 88.4 92.7 50.7 1.3 93.2-37.6 95.1-87h0zm484.5-93.1c-49.8.9-91.8 43.3-91 91.7.9 50.1 42.2 89.4 93.4 88.8 51.3-.6 90.3-40.3 89.8-91.5-.4-50.2-41.5-89.9-92.2-89zm897.5 1433.1c-63.9-28.4-122.5-71.1-184.9-77.6-62.2-6.5-127.5 29.4-192.5 36-198.1 20.3-375.6-34.9-521.9-170.3-278.3-257.4-238.5-652.1 83.4-863.1 286.2-187.5 705.9-125 907.6 135.2 176.1 227 155.4 528.3-59.6 719-62.2 55.2-84.6 100.6-44.7 173.4 7.5 13.5 8.3 30.5 12.6 47.4h0zm-727.3-704.1c40.7 0 74.2-31.8 75.7-72 1.6-42.5-32.6-78.2-75.2-78.4-42.2-.2-77.5 36-76 77.9 1.4 40.1 35.1 72.4 75.5 72.5h0zm468.8-150.2c-39.5-.3-73 32-74.6 71.9-1.7 42.6 31.4 77.7 73.6 77.8 40.8.1 73.1-30.7 74.5-71.3 1.7-42.8-31.5-78.1-73.5-78.4z" fill="#fff"/></svg>